<svg width="137" height="107" viewBox="0 0 137 107" fill="none" xmlns="http://www.w3.org/2000/svg">
<path d="M60.7388 104.149C58.9036 105.974 56.415 107 53.8201 107C51.2253 107 48.7367 105.974 46.9015 104.149L2.86516 60.3262C1.03059 58.5 -1.26775e-05 56.0235 -1.24517e-05 53.4412C-1.2226e-05 50.8589 1.03059 48.3824 2.86516 46.5562L46.9016 2.73367C48.7472 0.959757 51.2191 -0.0218117 53.7849 0.000376508C56.3508 0.0225648 58.8052 1.04673 60.6196 2.8523C62.4339 4.65787 63.4631 7.10037 63.4854 9.65373C63.5077 12.2071 62.5213 14.667 60.7388 16.5037L34.2484 43.7029L127.214 43.7029C129.81 43.7029 132.299 44.7289 134.134 46.5552C135.969 48.3815 137 50.8584 137 53.4412C137 56.024 135.969 58.501 134.134 60.3273C132.299 62.1535 129.81 63.1796 127.214 63.1796L34.2484 63.1795L60.7388 90.3787C62.5733 92.2049 63.6039 94.6815 63.6039 97.2637C63.6039 99.846 62.5733 102.323 60.7388 104.149Z" fill="black"/>
</svg>
